<?xml version="1.0" standalone="no"?>
<!DOCTYPE svg PUBLIC "-//W3C//DTD SVG 20010904//EN"
 "http://www.w3.org/TR/2001/REC-SVG-20010904/DTD/svg10.dtd">
<svg version="1.0" xmlns="http://www.w3.org/2000/svg"
 width="40px" height="40px" viewBox="0 0 512.000000 512.000000"
 preserveAspectRatio="xMidYMid meet">

<g transform="translate(0.000000,512.000000) scale(0.100000,-0.100000)"
fill="#000000" stroke="none">
<path d="M240 4227 c-49 -16 -133 -102 -148 -153 -17 -60 -17 -2968 0 -3028
16 -55 99 -138 154 -154 32 -9 559 -12 2316 -12 2565 0 2332 -8 2411 80 24 26
49 66 55 88 17 57 17 2967 0 3024 -6 22 -31 62 -55 88 -79 88 155 80 -2417 79
-1633 -1 -2291 -4 -2316 -12z m4615 -172 l25 -24 0 -1471 0 -1471 -25 -24 -24
-25 -2271 0 -2271 0 -24 25 -25 24 0 1471 0 1471 25 24 24 25 2271 0 2271 0
24 -25z"/>
<path d="M480 2640 l0 -1280 160 0 160 0 0 1280 0 1280 -160 0 -160 0 0 -1280z"/>
<path d="M960 3040 l0 -880 80 0 80 0 0 880 0 880 -80 0 -80 0 0 -880z"/>
<path d="M1280 3040 l0 -880 160 0 160 0 0 880 0 880 -160 0 -160 0 0 -880z"/>
<path d="M1760 3040 l0 -880 240 0 240 0 0 880 0 880 -240 0 -240 0 0 -880z"/>
<path d="M2400 3040 l0 -880 80 0 80 0 0 880 0 880 -80 0 -80 0 0 -880z"/>
<path d="M2720 3040 l0 -880 160 0 160 0 0 880 0 880 -160 0 -160 0 0 -880z"/>
<path d="M3200 3040 l0 -880 80 0 80 0 0 880 0 880 -80 0 -80 0 0 -880z"/>
<path d="M3520 3040 l0 -880 80 0 80 0 0 880 0 880 -80 0 -80 0 0 -880z"/>
<path d="M3840 3040 l0 -880 160 0 160 0 0 880 0 880 -160 0 -160 0 0 -880z"/>
<path d="M4320 2640 l0 -1280 160 0 160 0 0 1280 0 1280 -160 0 -160 0 0
-1280z"/>
<path d="M960 1920 l0 -80 80 0 80 0 0 -240 0 -240 80 0 80 0 0 295 0 296 -25
24 c-23 24 -29 25 -160 25 l-135 0 0 -80z"/>
<path d="M1520 1987 c-49 -16 -133 -102 -148 -153 -7 -23 -12 -92 -12 -154 0
-145 11 -182 75 -245 102 -103 243 -101 338 5 56 62 67 102 67 240 0 138 -11
178 -67 240 -65 72 -158 97 -253 67z m135 -172 c24 -23 25 -31 25 -135 0 -104
-1 -112 -25 -135 -15 -16 -36 -25 -55 -25 -19 0 -40 9 -55 25 -24 23 -25 31
-25 135 0 104 1 112 25 135 15 16 36 25 55 25 19 0 40 -9 55 -25z"/>
<path d="M1920 1920 l0 -80 94 0 95 0 -26 -62 c-37 -92 -71 -233 -79 -332 l-7
-86 80 0 80 0 7 78 c11 118 42 226 102 351 30 62 54 124 54 138 0 13 -11 35
-25 48 -24 25 -27 25 -200 25 l-175 0 0 -80z"/>
<path d="M2400 1920 l0 -80 80 0 80 0 0 -240 0 -240 80 0 80 0 0 295 0 296
-25 24 c-23 24 -29 25 -160 25 l-135 0 0 -80z"/>
<path d="M2800 1920 l0 -80 80 0 80 0 0 -240 0 -240 80 0 80 0 0 295 0 296
-25 24 c-23 24 -29 25 -160 25 l-135 0 0 -80z"/>
<path d="M3360 1987 c-49 -16 -133 -102 -148 -153 -7 -23 -12 -92 -12 -154 0
-145 11 -182 75 -245 102 -103 243 -101 338 5 56 62 67 102 67 240 0 138 -11
178 -67 240 -65 72 -158 97 -253 67z m135 -172 c24 -23 25 -31 25 -135 0 -104
-1 -112 -25 -135 -15 -16 -36 -25 -55 -25 -19 0 -40 9 -55 25 -24 23 -25 31
-25 135 0 104 1 112 25 135 15 16 36 25 55 25 19 0 40 -9 55 -25z"/>
<path d="M3760 1920 l0 -80 94 0 95 0 -26 -62 c-37 -92 -71 -233 -79 -332 l-7
-86 80 0 80 0 7 78 c11 118 42 226 102 351 30 62 54 124 54 138 0 13 -11 35
-25 48 -24 25 -27 25 -200 25 l-175 0 0 -80z"/>
</g>
</svg>
