<svg class="accordion-section-header-icon" width="22px" height="22px" viewBox="0 0 1024 1024"><path d="M944.5 140.5C910.9 106.9 865.3 88 817.8 88H182.3c-47.5 0-93.1 18.9-126.7 52.5C21.9 174.1 3 219.7 3 267.2v456.3c0 47.5 18.9 93.1 52.5 126.7 33.6 33.6 79.2 52.5 126.7 52.5h635.5c47.5 0 93.1-18.9 126.7-52.5C978.1 816.6 997 771 997 723.5V267.2c0-47.5-18.9-93.1-52.5-126.7zm-37.1 583c0 23.8-9.4 46.6-26.2 63.4-16.8 16.8-39.6 26.2-63.4 26.2H182.3c-23.8 0-46.6-9.4-63.4-26.2-16.8-16.8-26.2-39.6-26.2-63.4V450.6h814.7v272.9zm0-362.6H92.7v-93.7c0-23.8 9.4-46.6 26.2-63.4 16.8-16.8 39.6-26.2 63.4-26.2h635.5c23.8 0 46.6 9.4 63.4 26.2 16.8 16.8 26.2 39.6 26.2 63.4v93.7z"></path></svg>