<svg width="14" height="12" viewBox="0 0 14 12" fill="none" xmlns="http://www.w3.org/2000/svg">
<path fill-rule="evenodd" clip-rule="evenodd" d="M0.73941 0.773206C1.21285 0.278131 1.85496 0 2.5245 0H11.4755C12.145 0 12.7872 0.27813 13.2606 0.773206C13.734 1.26828 14 1.93975 14 2.63989V9.36011C14 10.0603 13.734 10.7317 13.2606 11.2268C12.7872 11.7219 12.145 12 11.4755 12H2.5245C1.85496 12 1.21285 11.7219 0.73941 11.2268C0.265974 10.7317 0 10.0603 0 9.36011V2.63989C0 1.93975 0.265974 1.26828 0.73941 0.773206ZM1.26225 5.34003V9.36011C1.26225 9.71018 1.39524 10.0459 1.63196 10.2935C1.86867 10.541 2.18973 10.6801 2.5245 10.6801H11.4755C11.8103 10.6801 12.1313 10.541 12.368 10.2935C12.6048 10.0459 12.7377 9.71018 12.7377 9.36011V5.34003H1.26225ZM12.7377 4.02008H1.26225V2.63989C1.26225 2.28982 1.39524 1.95409 1.63196 1.70655C1.86867 1.45901 2.18973 1.31994 2.5245 1.31994H11.4755C11.8103 1.31994 12.1313 1.45901 12.368 1.70655C12.6048 1.95409 12.7377 2.28982 12.7377 2.63989V4.02008Z" fill="#473C41"/>
</svg>
