<svg width="14" height="13" viewBox="0 0 14 13" fill="none" xmlns="http://www.w3.org/2000/svg">
<path d="M2.93514 0H11.0649C12.6852 0 14 1.35362 14 3.02174V9.97826C14.0014 11.6464 12.6866 13 11.0663 13H2.93514C1.31483 13 0 11.6464 0 9.97826V3.02174C0 1.35362 1.31483 0 2.93514 0ZM2.93514 1.2087C1.96099 1.2087 1.17406 2.01884 1.17406 3.02174V9.97826C1.17406 10.9812 1.96099 11.7913 2.93514 11.7913H11.0649C12.039 11.7913 12.8259 10.9812 12.8259 9.97826V3.02174C12.8259 2.01884 12.039 1.2087 11.0649 1.2087H2.93514ZM10.6791 10.0638H9.3812C9.26295 10.0638 9.1644 9.96377 9.1644 9.84058V3.15942C9.1644 3.03623 9.26154 2.93623 9.3812 2.93623H10.6791C10.7988 2.93623 10.8959 3.03623 10.8959 3.15942V9.84058C10.8945 9.96377 10.7974 10.0638 10.6791 10.0638ZM8.08185 10.0638H7.64967C7.53001 10.0638 7.43288 9.96377 7.43288 9.84058V3.15942C7.43288 3.03623 7.53001 2.93623 7.64967 2.93623H8.08185C8.20151 2.93623 8.29864 3.03623 8.29864 3.15942V9.84058C8.29864 9.96377 8.20151 10.0638 8.08185 10.0638ZM4.62162 10.0638H3.32368C3.20402 10.0638 3.10689 9.96377 3.10689 9.84058V3.15942C3.10689 3.03623 3.20402 2.93623 3.32368 2.93623H4.62162C4.74128 2.93623 4.83841 3.03623 4.83841 3.15942V9.84058C4.837 9.96377 4.73987 10.0638 4.62162 10.0638ZM6.35173 10.0638H5.91956C5.7999 10.0638 5.70276 9.96377 5.70276 9.84058V3.15942C5.70276 3.03623 5.7999 2.93623 5.91956 2.93623H6.35173C6.47139 2.93623 6.56853 3.03623 6.56853 3.15942V9.84058C6.56853 9.96377 6.47139 10.0638 6.35173 10.0638Z" fill="#473C41"/>
</svg>
