<?xml version="1.0" standalone="no"?>
<!DOCTYPE svg PUBLIC "-//W3C//DTD SVG 20010904//EN"
 "http://www.w3.org/TR/2001/REC-SVG-20010904/DTD/svg10.dtd">
<svg version="1.0" xmlns="http://www.w3.org/2000/svg"
 width="50px" height="50px" viewBox="0 0 512.000000 512.000000"
 preserveAspectRatio="xMidYMid meet">

<g transform="translate(0.000000,512.000000) scale(0.100000,-0.100000)"
fill="#04ff00" stroke="none">
<path d="M2380 4794 c-539 -49 -1022 -274 -1401 -653 -346 -347 -555 -760
-636 -1256 -24 -153 -24 -497 0 -650 24 -147 70 -327 113 -444 256 -688 833
-1213 1534 -1395 221 -57 327 -70 570 -70 236 0 343 12 554 65 779 195 1407
819 1610 1599 57 221 70 327 70 570 0 243 -13 349 -70 570 -223 857 -946 1508
-1829 1645 -97 15 -425 27 -515 19z m485 -339 c528 -92 957 -362 1267 -796 76
-105 203 -354 242 -471 138 -416 139 -830 5 -1242 -42 -128 -167 -374 -247
-485 -197 -276 -422 -469 -717 -615 -263 -131 -488 -190 -775 -203 -530 -24
-1054 181 -1436 561 -750 749 -750 1963 0 2712 307 306 689 492 1126 550 131
17 410 11 535 -11z"/>
<path d="M2888 2733 l-808 -808 -328 328 c-389 389 -353 370 -474 249 -122
-122 -150 -75 320 -544 349 -349 402 -398 440 -408 97 -25 39 -76 1005 888
822 822 877 879 877 911 0 30 -11 46 -78 113 -67 67 -83 78 -113 78 -32 0 -85
-51 -841 -807z"/>
</g>
</svg>
