<?xml version="1.0" standalone="no"?>
<!DOCTYPE svg PUBLIC "-//W3C//DTD SVG 20010904//EN"
 "http://www.w3.org/TR/2001/REC-SVG-20010904/DTD/svg10.dtd">
<svg version="1.0" xmlns="http://www.w3.org/2000/svg"
 width="14px" height="14px" viewBox="0 0 512.000000 512.000000"
 preserveAspectRatio="xMidYMid meet">

<g transform="translate(0.000000,512.000000) scale(0.100000,-0.100000)"
fill="#b563cf" stroke="none">
<path d="M2306 4945 c-623 -101 -1132 -532 -1329 -1125 -141 -423 -108 -875
93 -1275 83 -165 166 -276 370 -499 97 -105 210 -231 253 -281 l77 -90 -47
-13 c-594 -160 -899 -434 -853 -765 50 -352 526 -619 1275 -714 196 -24 634
-24 830 0 684 87 1146 319 1256 632 29 83 29 208 0 290 -76 213 -310 391 -661
504 -69 23 -146 46 -173 53 l-47 13 81 95 c45 52 150 169 234 260 194 210 215
234 292 352 327 497 362 1125 93 1663 -228 454 -648 776 -1155 885 -132 29
-455 37 -589 15z m511 -329 c456 -90 840 -414 1002 -846 134 -355 114 -747
-55 -1083 -75 -147 -126 -214 -355 -462 -180 -195 -239 -264 -588 -693 -140
-172 -258 -312 -261 -312 -3 0 -143 168 -310 373 -315 384 -376 455 -594 692
-71 77 -155 174 -186 216 -110 149 -198 350 -237 546 -24 124 -24 376 1 498
59 284 184 513 390 713 216 209 477 335 774 372 96 12 323 4 419 -14z m-589
-3502 c123 -151 235 -282 249 -291 37 -25 112 -27 153 -6 23 12 111 112 260
293 l226 275 40 -3 c21 -2 84 -14 139 -28 281 -69 477 -163 582 -277 82 -89
77 -157 -21 -253 -171 -168 -563 -295 -1029 -333 -654 -54 -1353 101 -1584
352 -75 81 -75 152 0 235 83 90 246 177 443 237 90 28 279 74 304 74 8 0 116
-124 238 -275z"/>
<path d="M2445 4130 c-646 -101 -947 -837 -553 -1355 99 -130 233 -225 401
-284 101 -36 103 -36 267 -36 160 0 168 1 260 33 385 133 618 492 579 890 -42
416 -380 735 -803 756 -50 3 -118 1 -151 -4z m220 -325 c244 -51 417 -261 418
-505 1 -242 -151 -446 -382 -514 -32 -9 -91 -16 -141 -16 -146 0 -269 50 -369
151 -102 101 -153 229 -153 379 1 243 172 452 412 504 85 19 130 19 215 1z"/>
</g>
</svg>
