<?xml version="1.0" standalone="no"?>
<!DOCTYPE svg PUBLIC "-//W3C//DTD SVG 20010904//EN"
 "http://www.w3.org/TR/2001/REC-SVG-20010904/DTD/svg10.dtd">
<svg version="1.0" xmlns="http://www.w3.org/2000/svg"
 width="20px" height="20px" viewBox="0 0 512.000000 512.000000"
 preserveAspectRatio="xMidYMid meet">

<g transform="translate(0.000000,512.000000) scale(0.100000,-0.100000)"
fill="#ffffff" stroke="none">
<path d="M2365 5114 c-362 -37 -633 -112 -930 -258 -261 -128 -447 -260 -659
-465 -218 -213 -377 -432 -512 -706 -126 -258 -203 -511 -246 -810 -17 -118
-17 -512 0 -630 43 -301 120 -553 247 -810 254 -515 653 -916 1160 -1165 197
-97 316 -142 510 -190 493 -124 989 -102 1475 65 141 48 421 188 550 274 306
203 577 480 774 791 26 41 80 141 120 221 493 991 287 2184 -510 2959 -210
205 -394 334 -659 466 -247 122 -495 199 -769 240 -97 14 -468 26 -551 18z
m550 -343 c628 -106 1158 -449 1511 -977 179 -267 296 -573 351 -909 24 -153
24 -497 0 -650 -108 -668 -474 -1222 -1042 -1580 -243 -153 -537 -261 -850
-312 -154 -24 -497 -24 -650 1 -648 105 -1184 447 -1541 982 -179 267 -296
573 -351 909 -24 153 -24 497 0 650 55 336 172 642 351 909 384 576 993 937
1686 1000 108 10 418 -4 535 -23z"/>
<path d="M1230 3321 c-39 -21 -80 -89 -80 -133 0 -16 7 -45 15 -66 19 -45
1272 -1304 1321 -1327 41 -19 107 -19 148 0 49 23 1302 1282 1321 1327 8 21
15 50 15 65 0 42 -38 110 -74 133 -42 25 -130 27 -166 4 -14 -9 -283 -274
-597 -588 l-573 -571 -577 577 c-319 318 -591 582 -606 587 -43 17 -109 13
-147 -8z"/>
</g>
</svg>
