<?xml version="1.0" standalone="no"?>
<!DOCTYPE svg PUBLIC "-//W3C//DTD SVG 20010904//EN"
 "http://www.w3.org/TR/2001/REC-SVG-20010904/DTD/svg10.dtd">
<svg version="1.0" xmlns="http://www.w3.org/2000/svg"
 width="486.000000pt" height="57.000000pt" viewBox="0 0 486.000000 57.000000"
 preserveAspectRatio="xMidYMid meet">

<g transform="translate(0.000000,57.000000) scale(0.100000,-0.100000)"
fill="#000000" stroke="none">
<path d="M1690 325 c0 -184 2 -215 15 -215 12 0 15 15 15 78 0 87 16 122 55
122 39 0 55 -35 55 -122 0 -63 3 -78 15 -78 12 0 15 17 15 93 0 84 -2 96 -22
114 -31 28 -60 35 -92 24 l-26 -11 0 105 c0 87 -3 105 -15 105 -13 0 -15 -31
-15 -215z"/>
<path d="M4620 325 c0 -208 1 -215 20 -215 18 0 20 7 20 63 l1 62 55 -63 c41
-45 63 -62 81 -62 24 0 22 4 -30 59 -32 33 -57 63 -57 67 0 5 21 30 47 56 44
45 45 48 23 48 -16 0 -42 -17 -72 -47 l-48 -47 0 147 c0 140 -1 147 -20 147
-19 0 -20 -7 -20 -215z"/>
<path d="M110 320 c0 -139 0 -140 29 -172 24 -27 36 -32 88 -36 58 -4 62 -3
99 31 l39 35 3 141 c4 138 3 141 -17 141 -20 0 -21 -5 -21 -129 0 -123 -1
-131 -24 -158 -32 -37 -103 -40 -138 -5 -21 21 -23 33 -26 157 -3 109 -6 135
-18 135 -11 0 -14 -26 -14 -140z"/>
<path d="M940 285 c0 -147 2 -175 15 -175 11 0 15 18 17 78 l3 77 68 3 c49 2
67 7 67 17 0 10 -18 15 -67 17 l-68 3 -3 58 -3 57 81 0 c73 0 80 2 80 20 0 19
-7 20 -95 20 l-95 0 0 -175z"/>
<path d="M2646 435 c-30 -27 -35 -77 -12 -111 8 -11 44 -35 80 -53 81 -41 95
-70 51 -109 -33 -28 -75 -25 -112 10 -16 15 -27 18 -33 12 -29 -29 36 -74 104
-74 61 0 96 32 96 87 0 52 -17 73 -89 108 -62 29 -81 55 -67 90 10 27 55 37
89 20 42 -21 63 -2 28 26 -35 28 -101 26 -135 -6z"/>
<path d="M3817 453 c-4 -3 -7 -82 -7 -175 l0 -168 85 0 c78 0 85 2 85 20 0 18
-7 20 -65 20 l-65 0 0 155 c0 123 -3 155 -13 155 -8 0 -17 -3 -20 -7z"/>
<path d="M2890 390 c0 -43 -3 -50 -20 -50 -11 0 -20 -7 -20 -15 0 -8 9 -15 20
-15 18 0 20 -7 20 -71 0 -96 18 -129 73 -129 17 0 27 5 27 15 0 8 -8 15 -18
15 -33 0 -42 22 -42 97 l0 73 30 0 c20 0 30 5 30 15 0 10 -10 15 -30 15 -29 0
-30 1 -30 50 0 43 -3 50 -20 50 -17 0 -20 -7 -20 -50z"/>
<path d="M1945 420 c-9 -15 4 -30 26 -30 12 0 19 7 19 20 0 21 -33 29 -45 10z"/>
<path d="M483 339 c-12 -4 -27 -18 -33 -29 -20 -37 -4 -68 50 -95 52 -26 61
-43 35 -65 -13 -11 -23 -10 -55 0 -48 16 -59 9 -31 -19 42 -42 131 -17 131 37
0 36 -8 46 -58 71 -34 17 -43 27 -40 44 3 19 8 22 46 19 42 -2 53 7 30 25 -20
16 -52 21 -75 12z"/>
<path d="M710 337 c-41 -14 -80 -67 -80 -109 0 -90 97 -146 180 -103 26 13 50
42 50 59 0 15 -32 4 -54 -19 -15 -15 -36 -25 -54 -25 -34 0 -77 31 -85 60 -5
19 -1 20 99 20 117 0 122 5 84 67 -30 50 -82 69 -140 50z m98 -54 l27 -28 -79
-3 c-43 -2 -81 0 -85 3 -3 4 7 18 22 31 38 33 81 31 115 -3z"/>
<path d="M1244 336 c-47 -21 -74 -61 -74 -113 0 -38 5 -50 34 -79 28 -28 41
-34 78 -34 24 0 54 7 66 16 21 15 25 15 41 0 22 -20 61 -21 61 -2 0 7 -9 16
-20 19 -18 5 -20 14 -20 101 0 89 -1 96 -20 96 -11 0 -20 -4 -20 -9 0 -6 -16
-3 -35 5 -42 17 -51 17 -91 0z m101 -51 c54 -53 13 -145 -64 -145 -30 0 -70
40 -77 77 -5 27 -1 37 24 63 39 38 83 40 117 5z"/>
<path d="M1523 340 c-29 -12 -45 -44 -37 -75 4 -18 22 -34 55 -51 50 -25 59
-40 37 -62 -16 -16 -38 -15 -59 4 -12 11 -23 13 -34 6 -16 -8 -15 -11 6 -31
27 -25 90 -29 113 -6 41 42 25 89 -43 120 -27 12 -41 24 -41 37 0 23 27 35 49
21 20 -12 41 -6 41 12 0 9 -56 40 -64 34 -1 0 -11 -4 -23 -9z"/>
<path d="M2135 336 c-43 -19 -66 -49 -72 -94 -10 -76 40 -132 117 -132 52 0
83 18 105 60 32 62 4 139 -60 166 -42 17 -51 17 -90 0z m100 -51 c41 -40 33
-105 -17 -131 -38 -20 -84 -10 -105 22 -55 85 52 180 122 109z"/>
<path d="M2447 343 c-4 -3 -23 -6 -42 -5 l-35 1 0 -114 c0 -108 1 -115 20
-115 19 0 20 7 20 90 0 78 2 91 19 100 58 31 81 1 81 -106 0 -77 2 -84 20 -84
18 0 20 7 20 80 0 91 -14 130 -55 148 -30 14 -39 15 -48 5z"/>
<path d="M3114 336 c-47 -21 -74 -61 -74 -113 0 -38 5 -50 34 -79 28 -28 42
-34 75 -34 57 0 95 22 116 66 29 62 2 134 -60 160 -42 17 -51 17 -91 0z m101
-51 c54 -53 13 -145 -64 -145 -30 0 -70 40 -77 77 -5 27 -1 37 24 63 39 38 83
40 117 5z"/>
<path d="M3415 334 c-19 -10 -31 -11 -33 -5 -2 6 -10 11 -18 11 -11 0 -14 -22
-14 -115 0 -96 3 -115 15 -115 12 0 15 14 15 65 0 94 25 135 81 135 12 0 19 7
19 20 0 24 -23 26 -65 4z"/>
<path d="M3584 336 c-47 -21 -74 -61 -74 -113 0 -38 5 -50 34 -79 28 -28 42
-34 76 -34 23 0 51 5 63 11 22 13 56 49 57 62 0 13 -39 8 -47 -7 -11 -18 -47
-36 -73 -36 -22 0 -80 50 -80 69 0 7 37 11 106 11 l106 0 -7 28 c-10 43 -34
73 -70 88 -42 17 -51 17 -91 0z m94 -42 c44 -31 28 -44 -53 -44 -41 0 -75 4
-75 9 0 17 52 51 79 51 15 0 37 -7 49 -16z"/>
<path d="M4083 334 c-114 -58 -74 -224 54 -224 38 0 50 5 79 34 40 40 46 78
23 138 -22 54 -100 80 -156 52z m98 -37 c21 -16 39 -51 39 -77 0 -30 -53 -80
-85 -80 -37 0 -85 50 -85 88 0 60 84 105 131 69z"/>
<path d="M4384 336 c-47 -21 -74 -61 -74 -113 0 -38 5 -50 34 -79 28 -28 42
-34 75 -34 57 0 95 22 116 66 29 62 2 134 -60 160 -42 17 -51 17 -91 0z m101
-51 c54 -53 13 -145 -64 -145 -30 0 -70 40 -77 77 -5 27 -1 37 24 63 39 38 83
40 117 5z"/>
<path d="M1950 225 c0 -108 1 -115 20 -115 19 0 20 7 20 115 0 108 -1 115 -20
115 -19 0 -20 -7 -20 -115z"/>
</g>
</svg>
